<?xml version="1.0" encoding="utf-8"?>
<!-- Generator: Adobe Illustrator 19.0.1, SVG Export Plug-In . SVG Version: 6.00 Build 0)  -->
<svg version="1.2" baseProfile="tiny" id="Слой_1"
	 xmlns="http://www.w3.org/2000/svg" xmlns:xlink="http://www.w3.org/1999/xlink" x="0px" y="0px" viewBox="0 0 633.2 375.8"
	 xml:space="preserve">
<path fill="none" stroke="#FFFFFF" stroke-width="3" stroke-miterlimit="10" d="M568,341.5H68c-5.5,0-10-4.5-10-10V20.6
	c0-5.5,4.5-10,10-10h500c5.5,0,10,4.5,10,10v310.9C578,337,573.5,341.5,568,341.5z"/>
<path fill="none" stroke="#FFFFFF" stroke-width="3" stroke-miterlimit="10" d="M7.5,342.2c2.5,14.9,15.5,26.3,31.1,26.3h558.8
	c15.6,0,28.6-11.4,31.1-26.3H7.5z"/>
<path fill="none" stroke="#FFFFFF" stroke-width="3" stroke-miterlimit="10" d="M276.9,342.8v1.6c0,6.5,4,11.8,8.8,11.8h62.4
	c4.9,0,8.8-5.3,8.8-11.8v-1.6H276.9z"/>
<g>
</g>
<g>
</g>
<g>
</g>
<g>
</g>
<g>
</g>
<g>
</g>
</svg>
