<svg id="Слой_1" data-name="Слой 1" xmlns="http://www.w3.org/2000/svg" viewBox="0 0 621.02 357.95"><defs><style>.cls-1{fill:none;}</style></defs><title>notebook</title><path class="cls-1" d="M64.73,37.72a10,10,0,0,1,10-10h500a10,10,0,0,1,10,10V348.62a10,10,0,0,1-10,10h-500a10,10,0,0,1-10-10V37.72" transform="translate(-14.22 -27.72)"/><path class="cls-1" d="M14.22,359.36a31.68,31.68,0,0,0,31.11,26.3h558.8a31.68,31.68,0,0,0,31.11-26.3h-621" transform="translate(-14.22 -27.72)"/><path class="cls-1" d="M283.7,360v1.58c0,6.5,4,11.82,8.82,11.82h62.36c4.85,0,8.82-5.32,8.82-11.82V360h-80" transform="translate(-14.22 -27.72)"/></svg>