<svg id="Слой_1" data-name="Слой 1" xmlns="http://www.w3.org/2000/svg" viewBox="0 0 744.59 744.59"><defs>
<style>.cls-1{fill:none;}.cls-2{fill:#d5d8db;}</style></defs>
<title>clock</title>
<path class="cls-1" d="M400,27.26c205.61,0,372.3,166.68,372.3,372.3S605.61,771.85,400,771.85,27.7,605.17,27.7,399.55,194.39,27.26,400,27.26" transform="translate(-27.7 -27.26)"/>
<path class="cls-1" d="M402.77,100.66c165.08,0,298.9,133.82,298.9,298.9s-133.82,298.9-298.9,298.9-298.9-133.82-298.9-298.9,133.82-298.9,298.9-298.9" transform="translate(-27.7 -27.26)"/>
<path class="cls-2" d="M599.26,300.91h0a7.43,7.43,0,0,1,2.53-10.2l23.49-14.15a7.43,7.43,0,0,1,10.2,2.53h0a7.43,7.43,0,0,1-2.53,10.2l-23.49,14.15A7.43,7.43,0,0,1,599.26,300.91Z" transform="translate(-27.7 -27.26)"/>
<path class="cls-2" d="M188.59,545.74h0a7.43,7.43,0,0,1,2.53-10.2l23.49-14.15a7.43,7.43,0,0,1,10.2,2.53h0a7.43,7.43,0,0,1-2.53,10.2l-23.49,14.15A7.43,7.43,0,0,1,188.59,545.74Z" transform="translate(-27.7 -27.26)"/>
<path class="cls-2" d="M515.88,597.65h0a7.43,7.43,0,0,1,10.32,2l15.45,22.66a7.43,7.43,0,0,1-2,10.32h0a7.43,7.43,0,0,1-10.32-2L513.92,608A7.43,7.43,0,0,1,515.88,597.65Z" transform="translate(-27.7 -27.26)"/>
<path class="cls-2" d="M268.25,188.25h0a7.43,7.43,0,0,1,10.32,2L294,212.86a7.43,7.43,0,0,1-2,10.32h0a7.43,7.43,0,0,1-10.32-2L266.3,198.58A7.43,7.43,0,0,1,268.25,188.25Z" transform="translate(-27.7 -27.26)"/>
<path class="cls-2" d="M525.47,225h0a7.43,7.43,0,0,1-2.6-10.18l14-23.59a7.43,7.43,0,0,1,10.18-2.6h0a7.43,7.43,0,0,1,2.6,10.18l-14,23.59A7.43,7.43,0,0,1,525.47,225Z" transform="translate(-27.7 -27.26)"/>
<path class="cls-2" d="M279.74,635.14h0a7.43,7.43,0,0,1-2.6-10.18l14-23.59a7.43,7.43,0,0,1,10.18-2.6h0a7.43,7.43,0,0,1,2.6,10.18l-14,23.59A7.43,7.43,0,0,1,279.74,635.14Z" transform="translate(-27.7 -27.26)"/>
<path class="cls-2" d="M592.57,525.86h0a7.43,7.43,0,0,1,10-3.17l24.34,12.64a7.43,7.43,0,0,1,3.17,10h0a7.43,7.43,0,0,1-10,3.17l-24.34-12.64A7.43,7.43,0,0,1,592.57,525.86Z" transform="translate(-27.7 -27.26)"/>
<path class="cls-2" d="M180.58,282.56h0a7.43,7.43,0,0,1,10-3.17L214.94,292a7.43,7.43,0,0,1,3.17,10h0a7.43,7.43,0,0,1-10,3.17l-24.34-12.64A7.43,7.43,0,0,1,180.58,282.56Z" transform="translate(-27.7 -27.26)"/>
<line class="cls-1" x1="371.2" y1="106.63" x2="371.2" y2="192.31"/>
<line class="cls-1" x1="371.2" y1="559.63" x2="371.2" y2="645.31"/>
<line class="cls-1" x1="556.81" y1="372.34" x2="642.49" y2="372.34"/>
<line class="cls-1" x1="99.81" y1="372.34" x2="185.49" y2="372.34"/>
</svg>