<svg id="Layer_1" data-name="Layer 1" xmlns="http://www.w3.org/2000/svg" viewBox="0 0 1030 1080"><defs><style>.cls-1{fill:none;}</style></defs><title>4-elem-03</title>
<polyline class="cls-1" points="519.83 0 519.83 115 818.83 187 818.83 285"/>
<polyline class="cls-1" points="519.83 0 519.83 115 618.83 187 618.83 233"/>
<polyline class="cls-1" points="519.83 0 519.83 115 418.83 187 418.83 285"/>
<polyline class="cls-1" points="519.83 1 519.83 115 218.83 187 218.83 233"/>
<path class="cls-1" d="M520,43a71,71,0,1,1-71,71,71,71,0,0,1,71-71"/>
<path class="cls-1" d="M520.56,57a57,57,0,1,1-57,57,57,57,0,0,1,57-57"/>
<line class="cls-1" x1="555.25" y1="114.01" x2="571.6" y2="114.01"/>
<line class="cls-1" x1="468.03" y1="114.01" x2="484.39" y2="114.01"/>
<line class="cls-1" x1="548.09" y1="73.75" x2="543.98" y2="80.69"/>
<line class="cls-1" x1="564.97" y1="91.01" x2="558.06" y2="95.18"/>
<line class="cls-1" x1="494.89" y1="73.68" x2="499.44" y2="80.35"/>
<line class="cls-1" x1="478.16" y1="91.68" x2="485.32" y2="95.39"/>
<line class="cls-1" x1="486.6" y1="137.74" x2="479.69" y2="141.9"/>
<line class="cls-1" x1="501.2" y1="152.02" x2="497.08" y2="158.96"/>
<line class="cls-1" x1="542.15" y1="151.81" x2="546.69" y2="158.47"/>
<line class="cls-1" x1="556.78" y1="138.11" x2="563.94" y2="141.82"/></svg>