<?xml version="1.0" encoding="utf-8"?>
<!-- Generator: Adobe Illustrator 19.0.1, SVG Export Plug-In . SVG Version: 6.00 Build 0)  -->
<svg version="1.2" baseProfile="tiny" id="Слой_1"
	 xmlns="http://www.w3.org/2000/svg" xmlns:xlink="http://www.w3.org/1999/xlink" x="0px" y="0px" viewBox="0 0 1440 900"
	 xml:space="preserve">
<line fill="none" stroke="#46505B" stroke-width="20" stroke-miterlimit="10" x1="283.2" y1="462" x2="143.2" y2="462"/>
<line fill="none" stroke="#758593" stroke-width="20" stroke-miterlimit="10" x1="681.6" y1="462" x2="1297" y2="462"/>
<g>
	<path fill="#FFFFFF" d="M303.5,501h-11.3v-22.5h3.4c1.6-1.4,2.7-3.3,3.4-5.6c0.6-2,1-5,1.2-9.2l1.6-29.8h37.4v44.5h6.2V501h-11.3
		v-11.1h-30.6V501z M311.7,465c-0.4,6.3-1.3,10.5-2.9,12.8v0.7h17.9v-33.1h-13.9L311.7,465z"/>
	<path fill="#FFFFFF" d="M394.2,440.3c4.4,5.3,6.6,12.5,6.6,21.6c0,9.1-2.2,16.3-6.6,21.6c-4.4,5.3-10.3,7.9-17.7,7.9
		c-7.5,0-13.4-2.6-17.8-7.9c-4.4-5.3-6.6-12.5-6.6-21.6c0-9.1,2.2-16.3,6.6-21.6c4.4-5.3,10.3-7.9,17.7-7.9
		C383.9,432.4,389.9,435.1,394.2,440.3z M368.1,449c-2.1,3.2-3.2,7.5-3.2,12.9c0,5.4,1,9.7,3.2,12.9c2.1,3.2,4.9,4.8,8.4,4.8
		c3.5,0,6.3-1.6,8.4-4.8c2.1-3.2,3.2-7.5,3.2-12.9c0-5.4-1.1-9.7-3.2-12.9c-2.1-3.2-4.9-4.8-8.4-4.8
		C373,444.2,370.2,445.8,368.1,449z"/>
	<path fill="#FFFFFF" d="M433,433.9c5.3,0,9.6,1.8,12.9,5.4c3.3,3.6,4.9,8.4,4.9,14.4c0,5.9-1.7,10.7-5.2,14.3
		c-3.4,3.6-7.9,5.4-13.4,5.4h-8.3v16.4h-12.6v-56H433z M423.9,462.8h5.7c2.7,0,4.8-0.8,6.3-2.3c1.5-1.5,2.2-3.7,2.2-6.6
		c0-2.9-0.7-5.2-2.2-6.7c-1.4-1.5-3.5-2.3-6.2-2.3h-5.8V462.8z"/>
	<path fill="#FFFFFF" d="M501,440.3c4.4,5.3,6.6,12.5,6.6,21.6c0,9.1-2.2,16.3-6.6,21.6c-4.4,5.3-10.3,7.9-17.7,7.9
		c-7.5,0-13.4-2.6-17.8-7.9c-4.4-5.3-6.6-12.5-6.6-21.6c0-9.1,2.2-16.3,6.6-21.6c4.4-5.3,10.3-7.9,17.7-7.9
		C490.7,432.4,496.7,435.1,501,440.3z M474.9,449c-2.1,3.2-3.2,7.5-3.2,12.9c0,5.4,1,9.7,3.2,12.9c2.1,3.2,4.9,4.8,8.4,4.8
		c3.5,0,6.3-1.6,8.4-4.8c2.1-3.2,3.2-7.5,3.2-12.9c0-5.4-1.1-9.7-3.2-12.9c-2.1-3.2-4.9-4.8-8.4-4.8
		C479.8,444.2,477,445.8,474.9,449z"/>
	<path fill="#FFFFFF" d="M518.2,489.9v-56h33.2v11.4h-20.6v44.5H518.2z"/>
	<path fill="#FFFFFF" d="M599.7,440.3c4.4,5.3,6.6,12.5,6.6,21.6c0,9.1-2.2,16.3-6.6,21.6c-4.4,5.3-10.3,7.9-17.7,7.9
		c-7.5,0-13.4-2.6-17.8-7.9c-4.4-5.3-6.6-12.5-6.6-21.6c0-9.1,2.2-16.3,6.6-21.6c4.4-5.3,10.3-7.9,17.7-7.9
		C589.4,432.4,595.3,435.1,599.7,440.3z M573.6,449c-2.1,3.2-3.2,7.5-3.2,12.9c0,5.4,1,9.7,3.2,12.9c2.1,3.2,4.9,4.8,8.4,4.8
		c3.5,0,6.3-1.6,8.4-4.8c2.1-3.2,3.2-7.5,3.2-12.9c0-5.4-1.1-9.7-3.2-12.9c-2.1-3.2-4.9-4.8-8.4-4.8
		C578.5,444.2,575.7,445.8,573.6,449z"/>
	<path fill="#FFFFFF" d="M613.3,450.2c0-5.1,1.6-9.2,4.7-12.2c3.1-3.1,7.4-4.6,12.8-4.6c5.2,0,9.4,1.4,12.5,4.3
		c3.1,2.8,4.7,6.6,4.7,11.3c0,5.4-2.5,9.8-7.4,13c-2.4,1.6-3.9,2.9-4.8,4c-0.8,1.2-1.2,2.7-1.2,4.5v1.8H624l-0.1-1.6
		c-0.3-3.3,0-5.9,0.9-8c0.9-1.9,2.5-3.7,4.9-5.3c2.3-1.6,3.9-2.9,4.7-4c0.8-1.1,1.2-2.5,1.2-4.2c0-1.6-0.5-2.9-1.5-3.8
		c-1-1-2.3-1.5-3.9-1.5c-1.6,0-3,0.6-4,1.7c-1.1,1.1-1.6,2.7-1.6,4.5H613.3z M624.4,489.4c-1.2-1.2-1.8-3-1.8-5.2
		c0-2.3,0.6-4,1.8-5.2c1.2-1.2,3-1.9,5.2-1.9s3.9,0.6,5.1,1.9c1.2,1.2,1.8,3,1.8,5.2c0,2.2-0.6,4-1.8,5.2c-1.2,1.2-2.9,1.9-5.1,1.9
		S625.7,490.7,624.4,489.4z"/>
</g>
<g>
</g>
<g>
</g>
<g>
</g>
<g>
</g>
<g>
</g>
<g>
</g>
</svg>
